<svg width="482" height="80" viewBox="0 0 482 80" fill="none" xmlns="http://www.w3.org/2000/svg">
<g clip-path="url(#clip0_0_1)">
<path d="M25.9198 54.8715C29.0655 46.1668 41.4263 46.3117 44.3672 55.0877L48.1666 66.4263C50.287 72.7539 45.5786 79.297 38.9054 79.297H31.0084C24.2384 79.297 19.5215 72.5772 21.8224 66.2102L25.9198 54.8715Z" fill="#0F1E24"/>
<path d="M27.0472 17.3597C30.948 12.001 38.9398 12.001 42.8407 17.3597L67.305 50.9669C72.0039 57.4223 67.3929 66.4827 59.4081 66.4827H10.4798C2.49508 66.4827 -2.11622 57.4223 2.58306 50.9669L27.0472 17.3597Z" fill="#006138"/>
<path d="M27.579 11.2952C31.4852 6.0638 39.3254 6.0638 43.2316 11.2952L60.7543 34.762C65.5643 41.2036 60.9672 50.3734 52.928 50.3734H17.8827C9.8434 50.3734 5.24635 41.2036 10.0563 34.762L27.579 11.2952Z" fill="#019153"/>
<path d="M26.842 4.4107C30.7516 -0.688003 38.4344 -0.688011 42.3441 4.4107L52.5045 17.6612C57.4313 24.0865 52.8503 33.3721 44.7534 33.3721H24.4326C16.3357 33.3721 11.7547 24.0865 16.6816 17.6612L26.842 4.4107Z" fill="#84C87F"/>
</g>
<path d="M108.352 24.784C108.96 24.784 109.536 24.832 110.08 24.928C110.624 25.024 111.072 25.328 111.424 25.84C111.808 26.352 112 27.232 112 28.48C112 29.696 111.808 30.576 111.424 31.12C111.072 31.632 110.608 31.936 110.032 32.032C109.488 32.128 108.912 32.176 108.304 32.176H101.68V54.16C101.68 54.864 101.616 55.552 101.488 56.224C101.36 56.864 100.992 57.392 100.384 57.808C99.808 58.224 98.784 58.432 97.312 58.432C95.904 58.432 94.896 58.224 94.288 57.808C93.68 57.36 93.312 56.816 93.184 56.176C93.088 55.504 93.04 54.816 93.04 54.112V32.176H86.368C85.792 32.176 85.216 32.128 84.64 32.032C84.096 31.904 83.632 31.584 83.248 31.072C82.896 30.56 82.72 29.68 82.72 28.432C82.72 27.216 82.896 26.352 83.248 25.84C83.632 25.328 84.112 25.024 84.688 24.928C85.264 24.832 85.84 24.784 86.416 24.784H108.352ZM118.751 58.384C117.311 58.384 116.287 58.176 115.679 57.76C115.071 57.312 114.703 56.752 114.575 56.08C114.447 55.376 114.383 54.672 114.383 53.968V29.2C114.383 28.496 114.447 27.808 114.575 27.136C114.703 26.464 115.071 25.92 115.679 25.504C116.287 25.056 117.327 24.832 118.799 24.832H128.447C129.663 24.832 130.975 25.088 132.383 25.6C133.791 26.08 135.119 26.832 136.367 27.856C137.615 28.88 138.639 30.16 139.439 31.696C140.239 33.232 140.639 35.056 140.639 37.168C140.639 38.64 140.415 40.016 139.967 41.296C139.551 42.576 138.911 43.744 138.047 44.8C137.215 45.824 136.191 46.736 134.975 47.536C133.791 48.304 132.431 48.912 130.895 49.36H123.167V54.016C123.167 54.72 123.103 55.408 122.975 56.08C122.847 56.752 122.479 57.312 121.871 57.76C121.263 58.176 120.223 58.384 118.751 58.384ZM138.863 57.232C137.423 58.32 136.287 58.752 135.455 58.528C134.623 58.336 133.727 57.6 132.767 56.32L123.935 44.32L133.919 43.072L139.871 51.088C140.511 52.016 140.911 52.8 141.071 53.44C141.263 54.08 141.183 54.688 140.831 55.264C140.479 55.84 139.823 56.496 138.863 57.232ZM123.167 40.624H128.447C128.735 40.624 129.071 40.576 129.455 40.48C129.871 40.352 130.255 40.16 130.607 39.904C130.959 39.616 131.247 39.248 131.471 38.8C131.727 38.352 131.855 37.792 131.855 37.12C131.855 36.448 131.695 35.856 131.375 35.344C131.055 34.8 130.623 34.384 130.079 34.096C129.567 33.776 128.991 33.616 128.351 33.616H123.167V40.624ZM147.864 58.432C146.424 58.432 145.4 58.224 144.792 57.808C144.184 57.36 143.816 56.8 143.688 56.128C143.56 55.424 143.496 54.72 143.496 54.016V29.2C143.496 27.536 143.816 26.4 144.456 25.792C145.128 25.152 146.312 24.832 148.008 24.832H165.576C166.312 24.832 167 24.896 167.64 25.024C168.312 25.152 168.856 25.52 169.272 26.128C169.72 26.736 169.944 27.776 169.944 29.248C169.944 30.688 169.72 31.712 169.272 32.32C168.856 32.928 168.312 33.296 167.64 33.424C166.968 33.552 166.264 33.616 165.528 33.616H152.28V37.888H161.16C161.896 37.888 162.552 37.952 163.128 38.08C163.704 38.176 164.168 38.48 164.52 38.992C164.872 39.504 165.048 40.4 165.048 41.68C165.048 42.896 164.872 43.776 164.52 44.32C164.168 44.832 163.688 45.136 163.08 45.232C162.472 45.328 161.8 45.376 161.064 45.376H152.28V49.648H165.576C166.312 49.648 167 49.712 167.64 49.84C168.312 49.968 168.856 50.336 169.272 50.944C169.72 51.552 169.944 52.592 169.944 54.064C169.944 55.504 169.72 56.528 169.272 57.136C168.856 57.744 168.312 58.112 167.64 58.24C166.968 58.368 166.264 58.432 165.528 58.432H147.864ZM176.786 58.432C175.346 58.432 174.322 58.224 173.714 57.808C173.106 57.36 172.738 56.8 172.61 56.128C172.482 55.424 172.418 54.72 172.418 54.016V29.2C172.418 27.536 172.738 26.4 173.378 25.792C174.05 25.152 175.234 24.832 176.93 24.832H194.498C195.234 24.832 195.922 24.896 196.562 25.024C197.234 25.152 197.778 25.52 198.194 26.128C198.642 26.736 198.866 27.776 198.866 29.248C198.866 30.688 198.642 31.712 198.194 32.32C197.778 32.928 197.234 33.296 196.562 33.424C195.89 33.552 195.186 33.616 194.45 33.616H181.202V37.888H190.082C190.818 37.888 191.474 37.952 192.05 38.08C192.626 38.176 193.09 38.48 193.442 38.992C193.794 39.504 193.97 40.4 193.97 41.68C193.97 42.896 193.794 43.776 193.442 44.32C193.09 44.832 192.61 45.136 192.002 45.232C191.394 45.328 190.722 45.376 189.986 45.376H181.202V49.648H194.498C195.234 49.648 195.922 49.712 196.562 49.84C197.234 49.968 197.778 50.336 198.194 50.944C198.642 51.552 198.866 52.592 198.866 54.064C198.866 55.504 198.642 56.528 198.194 57.136C197.778 57.744 197.234 58.112 196.562 58.24C195.89 58.368 195.186 58.432 194.45 58.432H176.786ZM224.956 58.384C223.516 58.384 222.492 58.176 221.884 57.76C221.276 57.312 220.908 56.752 220.78 56.08C220.652 55.376 220.588 54.672 220.588 53.968V29.2C220.588 28.496 220.652 27.808 220.78 27.136C220.908 26.464 221.276 25.92 221.884 25.504C222.492 25.056 223.532 24.832 225.004 24.832C226.476 24.832 227.5 25.056 228.076 25.504C228.684 25.92 229.052 26.464 229.18 27.136C229.308 27.808 229.372 28.512 229.372 29.248V54.016C229.372 54.72 229.308 55.408 229.18 56.08C229.052 56.752 228.684 57.312 228.076 57.76C227.468 58.176 226.428 58.384 224.956 58.384ZM205.228 58.384C203.788 58.384 202.764 58.176 202.156 57.76C201.548 57.312 201.18 56.752 201.052 56.08C200.924 55.376 200.86 54.672 200.86 53.968V29.2C200.86 28.496 200.924 27.808 201.052 27.136C201.18 26.464 201.548 25.92 202.156 25.504C202.764 25.056 203.804 24.832 205.276 24.832C206.748 24.832 207.772 25.056 208.348 25.504C208.956 25.92 209.324 26.464 209.452 27.136C209.58 27.808 209.644 28.512 209.644 29.248V54.016C209.644 54.72 209.58 55.408 209.452 56.08C209.324 56.752 208.956 57.312 208.348 57.76C207.74 58.176 206.7 58.384 205.228 58.384ZM208.876 45.376V37.888H221.356V45.376H208.876ZM263.854 52.336C264.334 53.296 264.59 54.112 264.622 54.784C264.654 55.456 264.446 56.048 263.998 56.56C263.55 57.072 262.83 57.584 261.838 58.096C260.302 58.832 259.118 59.056 258.286 58.768C257.454 58.512 256.67 57.6 255.934 56.032L247.774 39.328L239.71 56.08C238.942 57.584 238.142 58.464 237.31 58.72C236.478 59.008 235.31 58.784 233.806 58.048C232.814 57.568 232.078 57.072 231.598 56.56C231.15 56.048 230.942 55.456 230.974 54.784C231.006 54.112 231.262 53.296 231.742 52.336L243.79 27.376C244.174 26.608 244.734 26 245.47 25.552C246.238 25.072 247.022 24.832 247.822 24.832C248.398 24.832 248.926 24.944 249.406 25.168C249.918 25.36 250.382 25.648 250.798 26.032C251.214 26.416 251.55 26.88 251.806 27.424L263.854 52.336ZM240.19 51.472L243.838 43.984H251.758L255.406 51.472H240.19ZM282.907 58.912C281.659 58.912 280.267 58.704 278.731 58.288C277.195 57.904 275.643 57.28 274.075 56.416C272.539 55.552 271.115 54.432 269.803 53.056C268.523 51.68 267.483 50.032 266.683 48.112C265.915 46.192 265.531 43.968 265.531 41.44C265.531 39.008 265.915 36.864 266.683 35.008C267.483 33.152 268.523 31.552 269.803 30.208C271.083 28.864 272.491 27.776 274.027 26.944C275.595 26.112 277.163 25.504 278.731 25.12C280.299 24.704 281.739 24.496 283.051 24.496C284.683 24.496 286.123 24.704 287.371 25.12C288.619 25.504 289.627 25.92 290.395 26.368C291.195 26.784 291.691 27.056 291.883 27.184C292.523 27.6 293.115 28.064 293.659 28.576C294.235 29.056 294.523 29.712 294.523 30.544C294.523 30.96 294.427 31.392 294.235 31.84C294.075 32.288 293.819 32.752 293.467 33.232C292.827 34.128 292.219 34.784 291.643 35.2C291.099 35.616 290.555 35.824 290.011 35.824C289.595 35.824 289.195 35.728 288.811 35.536C288.427 35.344 287.963 35.072 287.419 34.72C287.195 34.56 286.907 34.384 286.555 34.192C286.203 33.968 285.723 33.776 285.115 33.616C284.507 33.424 283.707 33.328 282.715 33.328C281.883 33.328 280.971 33.488 279.979 33.808C279.019 34.096 278.107 34.576 277.243 35.248C276.379 35.888 275.675 36.752 275.131 37.84C274.587 38.896 274.315 40.176 274.315 41.68C274.315 43.216 274.587 44.512 275.131 45.568C275.707 46.624 276.427 47.488 277.291 48.16C278.155 48.8 279.067 49.28 280.027 49.6C281.019 49.888 281.915 50.032 282.715 50.032C283.547 50.032 284.251 49.968 284.827 49.84C285.403 49.68 285.915 49.472 286.363 49.216C286.843 48.96 287.275 48.704 287.659 48.448C288.011 48.192 288.395 47.968 288.811 47.776C289.227 47.584 289.643 47.488 290.059 47.488C290.603 47.488 291.147 47.712 291.691 48.16C292.235 48.608 292.811 49.296 293.419 50.224C293.771 50.768 294.027 51.28 294.187 51.76C294.379 52.208 294.475 52.624 294.475 53.008C294.475 53.808 294.187 54.448 293.611 54.928C293.067 55.408 292.475 55.84 291.835 56.224C291.611 56.352 291.131 56.64 290.395 57.088C289.659 57.536 288.667 57.952 287.419 58.336C286.171 58.72 284.667 58.912 282.907 58.912ZM301.429 58.432C299.989 58.432 298.965 58.224 298.357 57.808C297.749 57.36 297.381 56.8 297.253 56.128C297.125 55.424 297.061 54.72 297.061 54.016V29.2C297.061 28.496 297.125 27.808 297.253 27.136C297.381 26.464 297.749 25.92 298.357 25.504C298.965 25.056 300.005 24.832 301.477 24.832C302.949 24.832 303.973 25.056 304.549 25.504C305.157 25.92 305.525 26.464 305.653 27.136C305.781 27.808 305.845 28.512 305.845 29.248V35.872L314.197 26.32C314.933 25.52 315.621 24.96 316.261 24.64C316.901 24.32 317.557 24.256 318.229 24.448C318.901 24.64 319.637 25.12 320.437 25.888C321.749 27.072 322.421 28.112 322.453 29.008C322.485 29.904 321.957 30.928 320.869 32.08L311.461 41.68L320.917 51.136C322.101 52.32 322.645 53.392 322.549 54.352C322.485 55.28 321.797 56.288 320.485 57.376C319.525 58.144 318.709 58.624 318.037 58.816C317.365 59.008 316.741 58.928 316.165 58.576C315.589 58.256 314.949 57.68 314.245 56.848L305.845 47.296V54.064C305.845 54.768 305.781 55.456 305.653 56.128C305.525 56.8 305.157 57.36 304.549 57.808C303.941 58.224 302.901 58.432 301.429 58.432ZM336.789 58.912C334.837 58.912 333.173 58.672 331.797 58.192C330.453 57.712 329.349 57.152 328.485 56.512C327.621 55.84 326.965 55.232 326.517 54.688C326.069 54.144 325.797 53.808 325.701 53.68C325.061 52.88 324.661 52.16 324.501 51.52C324.373 50.88 324.469 50.24 324.789 49.6C325.141 48.96 325.717 48.256 326.517 47.488C327.253 46.784 327.973 46.4 328.677 46.336C329.381 46.24 330.069 46.384 330.741 46.768C331.445 47.152 332.117 47.712 332.757 48.448C333.525 49.312 334.181 49.904 334.725 50.224C335.269 50.512 335.893 50.656 336.597 50.656C337.461 50.656 338.165 50.56 338.709 50.368C339.253 50.144 339.653 49.824 339.909 49.408C340.165 48.96 340.293 48.4 340.293 47.728C340.293 47.184 340.021 46.768 339.477 46.48C338.933 46.16 338.213 45.888 337.317 45.664C336.453 45.44 335.477 45.2 334.389 44.944C333.301 44.656 332.229 44.288 331.173 43.84C330.533 43.584 329.909 43.264 329.301 42.88C328.693 42.496 328.117 42.064 327.573 41.584C327.061 41.072 326.613 40.48 326.229 39.808C325.845 39.104 325.541 38.32 325.317 37.456C325.125 36.592 325.029 35.616 325.029 34.528C325.029 32.576 325.509 30.832 326.469 29.296C327.461 27.76 328.805 26.544 330.501 25.648C332.229 24.752 334.181 24.304 336.357 24.304C337.925 24.304 339.269 24.432 340.389 24.688C341.509 24.944 342.421 25.248 343.125 25.6C343.861 25.952 344.421 26.288 344.805 26.608C345.189 26.896 345.429 27.088 345.525 27.184C346.581 28.144 347.157 28.976 347.253 29.68C347.349 30.352 346.965 31.328 346.101 32.608C345.141 33.984 344.197 34.768 343.269 34.96C342.341 35.12 341.269 34.816 340.053 34.048C339.797 33.856 339.541 33.648 339.285 33.424C339.029 33.168 338.677 32.96 338.229 32.8C337.813 32.608 337.173 32.512 336.309 32.512C335.989 32.512 335.669 32.576 335.349 32.704C335.029 32.8 334.757 32.944 334.533 33.136C334.309 33.296 334.117 33.504 333.957 33.76C333.829 34.016 333.765 34.288 333.765 34.576C333.765 35.248 334.021 35.776 334.533 36.16C335.045 36.512 335.717 36.784 336.549 36.976C337.413 37.168 338.357 37.36 339.381 37.552C340.405 37.744 341.445 38 342.501 38.32C343.365 38.608 344.197 38.976 344.997 39.424C345.797 39.872 346.501 40.448 347.109 41.152C347.717 41.856 348.197 42.736 348.549 43.792C348.933 44.816 349.125 46.08 349.125 47.584C349.125 49.664 348.725 51.44 347.925 52.912C347.125 54.352 346.085 55.52 344.805 56.416C343.557 57.28 342.213 57.904 340.773 58.288C339.365 58.704 338.037 58.912 336.789 58.912Z" fill="#019153"/>
<rect x="365.577" y="19.5768" width="113.846" height="39.8465" rx="6.44188" stroke="#C00000" stroke-width="5.1535"/>
<path d="M404.536 46.5422H412.729C413.392 46.5422 413.874 46.6225 414.175 46.7831C414.476 46.9237 414.677 47.1546 414.777 47.4759C414.878 47.7972 414.928 48.2289 414.928 48.7711C414.928 49.2932 414.878 49.7149 414.777 50.0361C414.677 50.3574 414.506 50.5783 414.265 50.6988C413.884 50.8996 413.361 51 412.699 51H401.855C400.45 51 399.627 50.6185 399.386 49.8554C399.265 49.5341 399.205 49.0221 399.205 48.3193V31.5723C399.205 31.1104 399.215 30.7691 399.235 30.5482C399.275 30.3072 399.376 30.0361 399.536 29.7349C399.817 29.1927 400.6 28.9217 401.886 28.9217C403.291 28.9217 404.125 29.2931 404.386 30.0361C404.486 30.3775 404.536 30.8996 404.536 31.6024V46.5422ZM416.883 31.5723C416.883 31.1104 416.893 30.7691 416.913 30.5482C416.953 30.3072 417.054 30.0361 417.214 29.7349C417.495 29.1927 418.279 28.9217 419.564 28.9217C420.969 28.9217 421.803 29.2931 422.064 30.0361C422.164 30.3775 422.214 30.8996 422.214 31.6024V48.3494C422.214 48.8313 422.194 49.1827 422.154 49.4036C422.134 49.6245 422.044 49.8855 421.883 50.1867C421.602 50.7289 420.819 51 419.534 51C418.128 51 417.305 50.6185 417.064 49.8554C416.943 49.5341 416.883 49.0221 416.883 48.3193V31.5723ZM444.77 29.253C445.954 29.8353 446.547 30.4779 446.547 31.1807C446.547 31.502 446.396 31.9839 446.095 32.6265L437.782 49.494C437.561 49.9357 437.219 50.2972 436.758 50.5783C436.316 50.8394 435.854 50.9699 435.372 50.9699H435.071C434.569 50.9699 434.087 50.8394 433.625 50.5783C433.183 50.2972 432.852 49.9357 432.631 49.494L424.318 32.6265C424.017 31.9839 423.866 31.502 423.866 31.1807C423.866 30.4779 424.458 29.8353 425.643 29.253C426.306 28.9116 426.808 28.7409 427.149 28.7409C427.511 28.7409 427.782 28.7811 427.962 28.8614C428.143 28.9417 428.314 29.0823 428.474 29.2831C428.655 29.5241 428.816 29.7952 428.956 30.0964C429.117 30.3775 429.509 31.2108 430.131 32.5964C430.754 33.9618 431.416 35.4177 432.119 36.9638C432.842 38.51 433.515 39.9759 434.137 41.3614C434.78 42.7269 435.141 43.49 435.221 43.6506L441.246 30.4578C441.406 30.0763 441.547 29.7751 441.667 29.5542C442.029 29.012 442.47 28.7409 442.993 28.7409C443.515 28.7409 444.107 28.9116 444.77 29.253ZM453.541 45.6687H462.818C463.28 45.6687 463.621 45.6887 463.842 45.7289C464.083 45.749 464.354 45.8394 464.655 46C465.197 46.2811 465.469 47.0643 465.469 48.3494C465.469 49.755 465.097 50.5783 464.354 50.8193C464.013 50.9398 463.491 51 462.788 51H450.86C449.454 51 448.631 50.6185 448.39 49.8554C448.27 49.5341 448.209 49.0221 448.209 48.3193V31.5723C448.209 30.5482 448.4 29.8554 448.782 29.494C449.163 29.1124 449.886 28.9217 450.95 28.9217H462.818C463.28 28.9217 463.621 28.9417 463.842 28.9819C464.083 29.002 464.354 29.0923 464.655 29.253C465.197 29.5341 465.469 30.3172 465.469 31.6024C465.469 33.008 465.097 33.8313 464.354 34.0723C464.013 34.1928 463.491 34.253 462.788 34.253H453.541V37.2952H459.505C459.967 37.2952 460.308 37.3152 460.529 37.3554C460.77 37.3755 461.041 37.4658 461.342 37.6265C461.884 37.9076 462.155 38.6908 462.155 39.9759C462.155 41.3815 461.774 42.2048 461.011 42.4458C460.669 42.5663 460.147 42.6265 459.444 42.6265H453.541V45.6687Z" fill="#C00000"/>
<circle cx="385" cy="40" r="7" fill="#C00000"/>
<defs>
<clipPath id="clip0_0_1">
<rect width="70" height="79.7674" fill="white"/>
</clipPath>
</defs>
</svg>
